{
    "asset" : {
        "generator" : "Khronos glTF Blender I/O v1.0.5",
        "version" : "2.0"
    },
    "scene" : 0,
    "scenes" : [
        {
            "name" : "Scene",
            "nodes" : [
                0
            ]
        }
    ],
    "nodes" : [
        {
            "mesh" : 0,
            "name" : "94029311-check-keffiyeh-seamless-pattern-traditional-vector-red",
            "scale" : [
                0.5860292911529541,
                0.5860292911529541,
                0.5860292911529541
            ]
        }
    ],
    "materials" : [
        {
            "doubleSided" : true,
            "name" : "94029311-check-keffiyeh-seamless-pattern-traditional-vector-red",
            "pbrMetallicRoughness" : {
                "baseColorTexture" : {
                    "index" : 0,
                    "texCoord" : 0
                },
                "metallicFactor" : 0,
                "roughnessFactor" : 0.5
            }
        },
        {
            "doubleSided" : true,
            "name" : "CLoth",
            "normalTexture" : {
                "index" : 1,
                "scale" : 2,
                "texCoord" : 0
            },
            "pbrMetallicRoughness" : {
                "baseColorTexture" : {
                    "index" : 2,
                    "texCoord" : 0
                },
                "metallicFactor" : 0,
                "roughnessFactor" : 1
            }
        }
    ],
    "meshes" : [
        {
            "name" : "94029311-check-keffiyeh-seamless-pattern-traditional-vector-red",
            "primitives" : [
                {
                    "attributes" : {
                        "POSITION" : 0,
                        "NORMAL" : 1,
                        "TEXCOORD_0" : 2
                    },
                    "indices" : 3,
                    "material" : 0
                },
                {
                    "attributes" : {
                        "POSITION" : 4,
                        "NORMAL" : 5,
                        "TEXCOORD_0" : 6
                    },
                    "indices" : 7,
                    "material" : 1
                }
            ]
        }
    ],
    "textures" : [
        {
            "sampler" : 0,
            "source" : 0
        },
        {
            "source" : 1
        },
        {
            "source" : 2
        }
    ],
    "images" : [
        {
            "mimeType" : "image/jpeg",
            "name" : "94029311-check-keffiyeh-seamless-pattern-traditional-vector-red-and-white-textile-print-",
            "uri" : "94029311-check-keffiyeh-seamless-pattern-traditional-vector-red-and-white-textile-print-.jpg"
        },
        {
            "mimeType" : "image/jpeg",
            "name" : "shek_normal",
            "uri" : "shek_normal.jpg"
        },
        {
            "mimeType" : "image/jpeg",
            "name" : "shek_Albedo",
            "uri" : "shek_Albedo.jpg"
        }
    ],
    "accessors" : [
        {
            "bufferView" : 0,
            "componentType" : 5126,
            "count" : 23316,
            "max" : [
                0.4052567183971405,
                0.47209832072257996,
                0.34562408924102783
            ],
            "min" : [
                -0.42465564608573914,
                -0.8163776397705078,
                -0.19163590669631958
            ],
            "type" : "VEC3"
        },
        {
            "bufferView" : 1,
            "componentType" : 5126,
            "count" : 23316,
            "type" : "VEC3"
        },
        {
            "bufferView" : 2,
            "componentType" : 5126,
            "count" : 23316,
            "type" : "VEC2"
        },
        {
            "bufferView" : 3,
            "componentType" : 5123,
            "count" : 36864,
            "type" : "SCALAR"
        },
        {
            "bufferView" : 4,
            "componentType" : 5126,
            "count" : 1333,
            "max" : [
                0.15300139784812927,
                0.4419512152671814,
                0.33699554204940796
            ],
            "min" : [
                -0.1361226886510849,
                0.3668724000453949,
                -0.04985465109348297
            ],
            "type" : "VEC3"
        },
        {
            "bufferView" : 5,
            "componentType" : 5126,
            "count" : 1333,
            "type" : "VEC3"
        },
        {
            "bufferView" : 6,
            "componentType" : 5126,
            "count" : 1333,
            "type" : "VEC2"
        },
        {
            "bufferView" : 7,
            "componentType" : 5123,
            "count" : 5760,
            "type" : "SCALAR"
        }
    ],
    "bufferViews" : [
        {
            "buffer" : 0,
            "byteLength" : 279792,
            "byteOffset" : 0
        },
        {
            "buffer" : 0,
            "byteLength" : 279792,
            "byteOffset" : 279792
        },
        {
            "buffer" : 0,
            "byteLength" : 186528,
            "byteOffset" : 559584
        },
        {
            "buffer" : 0,
            "byteLength" : 73728,
            "byteOffset" : 746112
        },
        {
            "buffer" : 0,
            "byteLength" : 15996,
            "byteOffset" : 819840
        },
        {
            "buffer" : 0,
            "byteLength" : 15996,
            "byteOffset" : 835836
        },
        {
            "buffer" : 0,
            "byteLength" : 10664,
            "byteOffset" : 851832
        },
        {
            "buffer" : 0,
            "byteLength" : 11520,
            "byteOffset" : 862496
        }
    ],
    "samplers" : [
        {
            "magFilter" : 9729,
            "minFilter" : 9986,
            "wrapS" : 33071,
            "wrapT" : 33071
        }
    ],
    "buffers" : [
        {
            "byteLength" : 874016,
            "uri" : "head_cloth.bin"
        }
    ]
}
